<?xml version="1.0" encoding="utf-8"?>
<!-- Generator: Adobe Illustrator 16.0.4, SVG Export Plug-In . SVG Version: 6.00 Build 0)  -->
<!DOCTYPE svg PUBLIC "-//W3C//DTD SVG 1.1//EN" "http://www.w3.org/Graphics/SVG/1.1/DTD/svg11.dtd">
<svg version="1.1" id="Layer_1" xmlns="http://www.w3.org/2000/svg" xmlns:xlink="http://www.w3.org/1999/xlink" x="0px" y="0px"
	 width="504px" height="493px" viewBox="0 0 504 493" enable-background="new 0 0 504 493" xml:space="preserve">
<path fill="#007BF4" d="M288.48,281.463h109.095v38.562l98.944-74.505l-98.943-74.508v38.565H288.48c0,0-37.98,18.239-37.98,35.443
	C250.5,263.699,288.48,281.463,288.48,281.463z"/>
<path fill="#FFCB4B" d="M287.944,210.04V100.945h38.562L252,2l-74.508,98.945h38.562V210.04
	c0.399,0.879,32.979,41.151,36.046,34.506C243.652,248.945,287.944,210.04,287.944,210.04z"/>
<path fill="#DE3F36" d="M216.056,280v109.096h-38.562L252,488.039l74.508-98.943h-38.562V280c0,0-39.699-35.98-39.443-35.98
	C249.374,244.02,216.056,280,216.056,280z"/>
<path fill="#00A35B" d="M215.52,209.576H106.425v-38.564L7.48,245.52l98.945,74.507v-38.564H215.52c0,0,32.98-34.493,32.98-37.443
	C248.5,243.197,215.52,209.576,215.52,209.576z"/>
</svg>
