<svg xmlns="http://www.w3.org/2000/svg" width="504" height="493" viewBox="0 0 504 493"><path fill="#007BF4" d="M288.48 281.463h109.095v38.562l98.944-74.505-98.944-74.508v38.565H288.48s-37.98 18.24-37.98 35.443c0 18.68 37.98 36.443 37.98 36.443z"/><path fill="#FFCB4B" d="M287.944 210.04V100.945h38.562L252 2l-74.508 98.945h38.562V210.04c.4.88 32.98 41.15 36.046 34.506-8.448 4.4 35.844-34.506 35.844-34.506z"/><path fill="#DE3F36" d="M216.056 280v109.096h-38.562L252 488.04l74.508-98.944h-38.562V280s-39.7-35.98-39.443-35.98c.87 0-32.447 35.98-32.447 35.98z"/><path fill="#00A35B" d="M215.52 209.576H106.425v-38.564L7.48 245.52l98.945 74.507v-38.564H215.52s32.98-34.493 32.98-37.443c0-.823-32.98-34.444-32.98-34.444z"/></svg>